<svg xmlns="http://www.w3.org/2000/svg" viewBox="0 0 1679.6750000000002 1491" width="1679.6750000000002" height="1491" style="--bg:#0d1117;--fg:#e6edf3;--line:#3d444d;--accent:#4493f8;--muted:#9198a1;background:var(--bg)">
<style>
  @import url('https://fonts.googleapis.com/css2?family=Inter:wght@400;500;600;700&amp;display=swap');
  text { font-family: 'Inter', system-ui, sans-serif; }
  svg {
    /* Derived from --bg and --fg (overridable via --line, --accent, etc.) */
    --_text:          var(--fg);
    --_text-sec:      var(--muted, color-mix(in srgb, var(--fg) 60%, var(--bg)));
    --_text-muted:    var(--muted, color-mix(in srgb, var(--fg) 40%, var(--bg)));
    --_text-faint:    color-mix(in srgb, var(--fg) 25%, var(--bg));
    --_line:          var(--line, color-mix(in srgb, var(--fg) 30%, var(--bg)));
    --_arrow:         var(--accent, color-mix(in srgb, var(--fg) 50%, var(--bg)));
    --_node-fill:     var(--surface, color-mix(in srgb, var(--fg) 3%, var(--bg)));
    --_node-stroke:   var(--border, color-mix(in srgb, var(--fg) 20%, var(--bg)));
    --_group-fill:    var(--bg);
    --_group-hdr:     color-mix(in srgb, var(--fg) 5%, var(--bg));
    --_inner-stroke:  color-mix(in srgb, var(--fg) 12%, var(--bg));
    --_key-badge:     color-mix(in srgb, var(--fg) 10%, var(--bg));
  }
</style>
<defs>
  <marker id="arrowhead" markerWidth="8" markerHeight="4.8" refX="8" refY="2.4" orient="auto">
    <polygon points="0 0, 8 2.4, 0 4.8" fill="var(--_arrow)" />
  </marker>
  <marker id="arrowhead-start" markerWidth="8" markerHeight="4.8" refX="0" refY="2.4" orient="auto-start-reverse">
    <polygon points="8 0, 0 2.4, 8 4.8" fill="var(--_arrow)" />
  </marker>
</defs>
<rect x="40" y="40" width="487.7125000000001" height="441" rx="0" ry="0" fill="var(--_group-fill)" stroke="var(--_node-stroke)" stroke-width="1" />
<rect x="40" y="40" width="487.7125000000001" height="28" rx="0" ry="0" fill="var(--_group-hdr)" stroke="var(--_node-stroke)" stroke-width="1" />
<text x="52" y="54" dy="0.35em" font-size="12" font-weight="600" fill="var(--_text-sec)">&quot;UI Layer&quot;</text>
<rect x="547.7125000000001" y="369" width="682.55" height="441" rx="0" ry="0" fill="var(--_group-fill)" stroke="var(--_node-stroke)" stroke-width="1" />
<rect x="547.7125000000001" y="369" width="682.55" height="28" rx="0" ry="0" fill="var(--_group-hdr)" stroke="var(--_node-stroke)" stroke-width="1" />
<text x="559.7125000000001" y="383" dy="0.35em" font-size="12" font-weight="600" fill="var(--_text-sec)">&quot;Processing Layer (Client-Side)&quot;</text>
<rect x="741.95" y="871" width="261.9000000000001" height="112" rx="0" ry="0" fill="var(--_group-fill)" stroke="var(--_node-stroke)" stroke-width="1" />
<rect x="741.95" y="871" width="261.9000000000001" height="28" rx="0" ry="0" fill="var(--_group-hdr)" stroke="var(--_node-stroke)" stroke-width="1" />
<text x="753.95" y="885" dy="0.35em" font-size="12" font-weight="600" fill="var(--_text-sec)">&quot;State Layer&quot;</text>
<rect x="745.5250000000001" y="1027" width="254.75" height="112" rx="0" ry="0" fill="var(--_group-fill)" stroke="var(--_node-stroke)" stroke-width="1" />
<rect x="745.5250000000001" y="1027" width="254.75" height="28" rx="0" ry="0" fill="var(--_group-hdr)" stroke="var(--_node-stroke)" stroke-width="1" />
<text x="757.5250000000001" y="1041" dy="0.35em" font-size="12" font-weight="600" fill="var(--_text-sec)">&quot;Service Layer&quot;</text>
<rect x="724.0750000000002" y="1183" width="269.04999999999995" height="268" rx="0" ry="0" fill="var(--_group-fill)" stroke="var(--_node-stroke)" stroke-width="1" />
<rect x="724.0750000000002" y="1183" width="269.04999999999995" height="28" rx="0" ry="0" fill="var(--_group-hdr)" stroke="var(--_node-stroke)" stroke-width="1" />
<text x="736.0750000000002" y="1197" dy="0.35em" font-size="12" font-weight="600" fill="var(--_text-sec)">&quot;Data Layer&quot;</text>
<rect x="1013.125" y="1339" width="626.5500000000001" height="112" rx="0" ry="0" fill="var(--_group-fill)" stroke="var(--_node-stroke)" stroke-width="1" />
<rect x="1013.125" y="1339" width="626.5500000000001" height="28" rx="0" ry="0" fill="var(--_group-hdr)" stroke="var(--_node-stroke)" stroke-width="1" />
<text x="1025.125" y="1353" dy="0.35em" font-size="12" font-weight="600" fill="var(--_text-sec)">&quot;New Table&quot;</text>
<polyline points="265.08750000000003,132 265.08750000000003,152 375.31250000000006,152 375.31250000000006,252" fill="none" stroke="var(--_line)" stroke-width="0.75" marker-end="url(#arrowhead)" />
<polyline points="265.08750000000003,132 265.08750000000003,152 154.8625,152 154.8625,252" fill="none" stroke="var(--_line)" stroke-width="0.75" marker-end="url(#arrowhead)" />
<polyline points="154.8625,288 154.8625,425" fill="none" stroke="var(--_line)" stroke-width="0.75" marker-end="url(#arrowhead)" />
<polyline points="375.31250000000006,288 375.31250000000006,443 760.3750000000001,443" fill="none" stroke="var(--_line)" stroke-width="0.75" marker-end="url(#arrowhead)" />
<polyline points="872.9000000000001,461 872.9000000000001,481 710.8375000000001,481 710.8375000000001,598" fill="none" stroke="var(--_line)" stroke-width="0.75" marker-end="url(#arrowhead)" />
<polyline points="710.8375000000001,634 710.8375000000001,772 717.4750000000001,772" fill="none" stroke="var(--_line)" stroke-width="0.75" marker-end="url(#arrowhead)" />
<polyline points="872.9000000000001,461 872.9000000000001,481 1034.9625,481 1034.9625,598" fill="none" stroke="var(--_line)" stroke-width="0.75" marker-end="url(#arrowhead)" />
<polyline points="1034.9625,634 1034.9625,772 1028.325,772" fill="none" stroke="var(--_line)" stroke-width="0.75" marker-end="url(#arrowhead)" />
<polyline points="872.9000000000001,790 872.9000000000001,927" fill="none" stroke="var(--_line)" stroke-width="0.75" marker-end="url(#arrowhead)" />
<polyline points="872.9000000000001,963 872.9000000000001,1083" fill="none" stroke="var(--_line)" stroke-width="0.75" marker-end="url(#arrowhead)" />
<polyline points="872.9000000000001,1119 872.9000000000001,1239" fill="none" stroke="var(--_line)" stroke-width="0.75" marker-end="url(#arrowhead)" />
<polyline points="872.9000000000001,1275 872.9000000000001,1295 858.6000000000001,1295 858.6000000000001,1395" fill="none" stroke="var(--_line)" stroke-width="0.75" marker-end="url(#arrowhead)" />
<polyline points="872.9000000000001,1275 872.9000000000001,1295 930.1625000000001,1295 930.1625000000001,1413 1035.125,1413" fill="none" stroke="var(--_line)" stroke-width="0.75" marker-end="url(#arrowhead)" />
<rect x="347.2925000000001" y="343" width="56.04" height="27" rx="4" ry="4" fill="var(--bg)" stroke="var(--_inner-stroke)" stroke-width="0.5" />
<text x="375.31250000000006" y="356.5" text-anchor="middle" dy="0.35em" font-size="11" font-weight="400" fill="var(--_text-muted)">&quot;Photo&quot;</text>
<rect x="657.0775000000001" y="516" width="107.52000000000001" height="27" rx="4" ry="4" fill="var(--bg)" stroke="var(--_inner-stroke)" stroke-width="0.5" />
<text x="710.8375000000001" y="529.5" text-anchor="middle" dy="0.35em" font-size="11" font-weight="400" fill="var(--_text-muted)">&quot;Has text layer&quot;</text>
<rect x="992.6425" y="516" width="84.64" height="27" rx="4" ry="4" fill="var(--bg)" stroke="var(--_inner-stroke)" stroke-width="0.5" />
<text x="1034.9625" y="529.5" text-anchor="middle" dy="0.35em" font-size="11" font-weight="400" fill="var(--_text-muted)">&quot;Image file&quot;</text>
<rect x="816.2800000000001" y="845" width="113.24000000000001" height="27" rx="4" ry="4" fill="var(--bg)" stroke="var(--_inner-stroke)" stroke-width="0.5" />
<text x="872.9000000000001" y="858.5" text-anchor="middle" dy="0.35em" font-size="11" font-weight="400" fill="var(--_text-muted)">&quot;Structured text&quot;</text>
<rect x="152.56250000000003" y="96" width="225.05" height="36" rx="0" ry="0" fill="#818cf8" stroke="#4f46e5" stroke-width="0.75" />
<rect x="244.91250000000005" y="252" width="260.8" height="36" rx="0" ry="0" fill="#818cf8" stroke="#4f46e5" stroke-width="0.75" />
<rect x="88.8125" y="252" width="132.10000000000002" height="36" rx="0" ry="0" fill="#818cf8" stroke="#4f46e5" stroke-width="0.75" />
<rect x="81.66250000000001" y="425" width="146.4" height="36" rx="0" ry="0" fill="#818cf8" stroke="#4f46e5" stroke-width="0.75" />
<rect x="760.3750000000001" y="425" width="225.05" height="36" rx="0" ry="0" fill="#34d399" stroke="#059669" stroke-width="0.75" />
<rect x="584.0125" y="598" width="253.65" height="36" rx="0" ry="0" fill="#34d399" stroke="#059669" stroke-width="0.75" />
<rect x="861.6625000000001" y="598" width="346.6" height="36" rx="0" ry="0" fill="#34d399" stroke="#059669" stroke-width="0.75" />
<rect x="717.4750000000001" y="754" width="310.85" height="36" rx="0" ry="0" fill="#34d399" stroke="#059669" stroke-width="0.75" />
<rect x="763.95" y="927" width="217.9" height="36" rx="0" ry="0" fill="#fbbf24" stroke="#d97706" stroke-width="0.75" />
<rect x="767.5250000000001" y="1083" width="210.75000000000003" height="36" rx="0" ry="0" fill="#f472b6" stroke="#db2777" stroke-width="0.75" />
<rect x="788.9750000000001" y="1239" width="167.85000000000002" height="36" rx="0" ry="0" fill="#60a5fa" stroke="#2563eb" stroke-width="0.75" />
<rect x="746.0750000000002" y="1395" width="225.05" height="36" rx="0" ry="0" fill="#60a5fa" stroke="#2563eb" stroke-width="0.75" />
<rect x="1035.125" y="1395" width="582.5500000000001" height="36" rx="0" ry="0" fill="#a78bfa" stroke="#7c3aed" stroke-width="0.75" />
<text x="265.08750000000003" y="114" text-anchor="middle" dy="0.35em" font-size="13" font-weight="500" fill="#fff">&quot;Content Page&lt;br/&gt;/content&quot;</text>
<text x="375.31250000000006" y="270" text-anchor="middle" dy="0.35em" font-size="13" font-weight="500" fill="#fff">&quot;Upload Dialog&lt;br/&gt;PDF / Camera&quot;</text>
<text x="154.8625" y="270" text-anchor="middle" dy="0.35em" font-size="13" font-weight="500" fill="#fff">&quot;Chapter List&quot;</text>
<text x="154.8625" y="443" text-anchor="middle" dy="0.35em" font-size="13" font-weight="500" fill="#fff">&quot;Content Viewer&quot;</text>
<text x="872.9000000000001" y="443" text-anchor="middle" dy="0.35em" font-size="13" font-weight="500" fill="#fff">&quot;File Handler&lt;br/&gt;Max 50MB&quot;</text>
<text x="710.8375000000001" y="616" text-anchor="middle" dy="0.35em" font-size="13" font-weight="500" fill="#fff">&quot;PDF.js&lt;br/&gt;Text Layer Extract&quot;</text>
<text x="1034.9625" y="616" text-anchor="middle" dy="0.35em" font-size="13" font-weight="500" fill="#fff">&quot;Tesseract.js&lt;br/&gt;Image OCR&lt;br/&gt;(lazy load)&quot;</text>
<text x="872.9000000000001" y="772" text-anchor="middle" dy="0.35em" font-size="13" font-weight="500" fill="#fff">&quot;Chapter Detector&lt;br/&gt;Regex Heuristics&quot;</text>
<text x="872.9000000000001" y="945" text-anchor="middle" dy="0.35em" font-size="13" font-weight="500" fill="#000">&quot;contentStore&lt;br/&gt;Zustand&quot;</text>
<text x="872.9000000000001" y="1101" text-anchor="middle" dy="0.35em" font-size="13" font-weight="500" fill="#fff">&quot;chapterService&lt;br/&gt;CRUD&quot;</text>
<text x="872.9000000000001" y="1257" text-anchor="middle" dy="0.35em" font-size="13" font-weight="500" fill="#fff">&quot;sql.js&lt;br/&gt;SQLite&quot;</text>
<text x="858.6000000000001" y="1413" text-anchor="middle" dy="0.35em" font-size="13" font-weight="500" fill="#fff">&quot;IndexedDB&lt;br/&gt;Persistence&quot;</text>
<text x="1326.4" y="1413" text-anchor="middle" dy="0.35em" font-size="13" font-weight="500" fill="#fff">&quot;chapters&lt;br/&gt;id, subjectId, name,&lt;br/&gt;chapterNumber, content,&lt;br/&gt;pageCount&quot;</text>
</svg>