<svg xmlns="http://www.w3.org/2000/svg" viewBox="0 0 4002.9375 660" width="4002.9375" height="660" style="--bg:#0d1117;--fg:#e6edf3;--line:#3d444d;--accent:#4493f8;--muted:#9198a1;background:var(--bg)">
<style>
  @import url('https://fonts.googleapis.com/css2?family=Inter:wght@400;500;600;700&amp;display=swap');
  text { font-family: 'Inter', system-ui, sans-serif; }
  svg {
    /* Derived from --bg and --fg (overridable via --line, --accent, etc.) */
    --_text:          var(--fg);
    --_text-sec:      var(--muted, color-mix(in srgb, var(--fg) 60%, var(--bg)));
    --_text-muted:    var(--muted, color-mix(in srgb, var(--fg) 40%, var(--bg)));
    --_text-faint:    color-mix(in srgb, var(--fg) 25%, var(--bg));
    --_line:          var(--line, color-mix(in srgb, var(--fg) 30%, var(--bg)));
    --_arrow:         var(--accent, color-mix(in srgb, var(--fg) 50%, var(--bg)));
    --_node-fill:     var(--surface, color-mix(in srgb, var(--fg) 3%, var(--bg)));
    --_node-stroke:   var(--border, color-mix(in srgb, var(--fg) 20%, var(--bg)));
    --_group-fill:    var(--bg);
    --_group-hdr:     color-mix(in srgb, var(--fg) 5%, var(--bg));
    --_inner-stroke:  color-mix(in srgb, var(--fg) 12%, var(--bg));
    --_key-badge:     color-mix(in srgb, var(--fg) 10%, var(--bg));
  }
</style>
<defs>
  <marker id="arrowhead" markerWidth="8" markerHeight="4.8" refX="8" refY="2.4" orient="auto">
    <polygon points="0 0, 8 2.4, 0 4.8" fill="var(--_arrow)" />
  </marker>
  <marker id="arrowhead-start" markerWidth="8" markerHeight="4.8" refX="0" refY="2.4" orient="auto-start-reverse">
    <polygon points="8 0, 0 2.4, 8 4.8" fill="var(--_arrow)" />
  </marker>
</defs>
<rect x="40" y="40" width="1491.2624999999998" height="112" rx="0" ry="0" fill="var(--_group-fill)" stroke="var(--_node-stroke)" stroke-width="1" />
<rect x="40" y="40" width="1491.2624999999998" height="28" rx="0" ry="0" fill="var(--_group-hdr)" stroke="var(--_node-stroke)" stroke-width="1" />
<text x="52" y="54" dy="0.35em" font-size="12" font-weight="600" fill="var(--_text-sec)">&quot;UI Layer (Next.js App Router)&quot;</text>
<rect x="1735.3000000000002" y="40" width="992.6999999999998" height="112" rx="0" ry="0" fill="var(--_group-fill)" stroke="var(--_node-stroke)" stroke-width="1" />
<rect x="1735.3000000000002" y="40" width="992.6999999999998" height="28" rx="0" ry="0" fill="var(--_group-hdr)" stroke="var(--_node-stroke)" stroke-width="1" />
<text x="1747.3000000000002" y="54" dy="0.35em" font-size="12" font-weight="600" fill="var(--_text-sec)">&quot;Component Layer&quot;</text>
<rect x="411.475" y="196" width="1177.05" height="112" rx="0" ry="0" fill="var(--_group-fill)" stroke="var(--_node-stroke)" stroke-width="1" />
<rect x="411.475" y="196" width="1177.05" height="28" rx="0" ry="0" fill="var(--_group-hdr)" stroke="var(--_node-stroke)" stroke-width="1" />
<text x="423.475" y="210" dy="0.35em" font-size="12" font-weight="600" fill="var(--_text-sec)">&quot;Zustand Stores&quot;</text>
<rect x="1608.5249999999996" y="196" width="1186.4625000000003" height="268" rx="0" ry="0" fill="var(--_group-fill)" stroke="var(--_node-stroke)" stroke-width="1" />
<rect x="1608.5249999999996" y="196" width="1186.4625000000003" height="28" rx="0" ry="0" fill="var(--_group-hdr)" stroke="var(--_node-stroke)" stroke-width="1" />
<text x="1620.5249999999996" y="210" dy="0.35em" font-size="12" font-weight="600" fill="var(--_text-sec)">&quot;Service Layer&quot;</text>
<rect x="2814.9875" y="352" width="475.1999999999998" height="268" rx="0" ry="0" fill="var(--_group-fill)" stroke="var(--_node-stroke)" stroke-width="1" />
<rect x="2814.9875" y="352" width="475.1999999999998" height="28" rx="0" ry="0" fill="var(--_group-hdr)" stroke="var(--_node-stroke)" stroke-width="1" />
<text x="2826.9875" y="366" dy="0.35em" font-size="12" font-weight="600" fill="var(--_text-sec)">&quot;Storage Layer&quot;</text>
<rect x="3310.1875" y="352" width="652.75" height="112" rx="0" ry="0" fill="var(--_group-fill)" stroke="var(--_node-stroke)" stroke-width="1" />
<rect x="3310.1875" y="352" width="652.75" height="28" rx="0" ry="0" fill="var(--_group-hdr)" stroke="var(--_node-stroke)" stroke-width="1" />
<text x="3322.1875" y="366" dy="0.35em" font-size="12" font-weight="600" fill="var(--_text-sec)">&quot;External Dependencies - NEW&quot;</text>
<polyline points="860.2750000000001,132 860.2750000000001,152 488.7999999999997,152 488.7999999999997,252" fill="none" stroke="var(--_line)" stroke-width="0.75" marker-end="url(#arrowhead)" />
<polyline points="1471.8749999999995,288 1471.8749999999995,328 1775.35,328 1775.35,426 1769.7749999999999,426" fill="none" stroke="var(--_line)" stroke-width="0.75" marker-end="url(#arrowhead)" />
<polyline points="2358.7250000000004,288 2358.7250000000004,308 2302.4625,308 2302.4625,426 2858.4375,426" fill="none" stroke="var(--_line)" stroke-width="0.75" marker-end="url(#arrowhead)" />
<polyline points="2935.2125,444 2935.2125,564" fill="none" stroke="var(--_line)" stroke-width="0.75" marker-end="url(#arrowhead)" />
<polyline points="860.2750000000001,132 860.2750000000001,152 1471.8749999999995,152 1471.8749999999995,252" fill="none" stroke="var(--_line)" stroke-width="0.75" marker-end="url(#arrowhead)" />
<polyline points="2597.05,132 2597.05,252" fill="none" stroke="var(--_line)" stroke-width="0.75" marker-end="url(#arrowhead)" />
<polyline points="2597.05,288 2597.05,308 2556.5375,308 2556.5375,426 3332.1875,426" fill="none" stroke="var(--_line)" stroke-width="0.75" marker-end="url(#arrowhead)" />
<polyline points="2116.825,132 2116.825,252" fill="none" stroke="var(--_line)" stroke-width="0.75" marker-end="url(#arrowhead)" />
<polyline points="2116.825,288 2116.825,308 2673.6375000000003,308 2673.6375000000003,426 3581.2375,426" fill="none" stroke="var(--_line)" stroke-width="0.75" marker-end="url(#arrowhead)" />
<polyline points="1848.375,132 1848.375,252" fill="none" stroke="var(--_line)" stroke-width="0.75" marker-end="url(#arrowhead)" />
<polyline points="1848.375,288 1848.375,308 2282.4625,308 2282.4625,426 2858.4375,426" fill="none" stroke="var(--_line)" stroke-width="0.75" marker-end="url(#arrowhead)" />
<polyline points="2358.7250000000004,132 2358.7250000000004,252" fill="none" stroke="var(--_line)" stroke-width="0.75" marker-end="url(#arrowhead)" />
<polyline points="2358.7250000000004,288 2358.7250000000004,308 2427.375,308 2427.375,426 3050.2875,426" fill="none" stroke="var(--_line)" stroke-width="0.75" marker-end="url(#arrowhead)" />
<polyline points="2358.7250000000004,288 2358.7250000000004,308 2693.6375000000003,308 2693.6375000000003,426 3773.0875,426" fill="none" stroke="var(--_line)" stroke-width="0.75" marker-end="url(#arrowhead)" />
<polyline points="2116.825,288 2116.825,308 2167.2625,308 2167.2625,426 2149.175,426" fill="none" stroke="var(--_line)" stroke-width="0.75" marker-end="url(#arrowhead)" />
<polyline points="2116.825,288 2116.825,308 1945.75,308 1945.75,426 1947.325,426" fill="none" stroke="var(--_line)" stroke-width="0.75" marker-end="url(#arrowhead)" />
<polyline points="1848.375,288 1848.375,308 1664.3374999999999,308 1664.3374999999999,426 1630.5249999999999,426" fill="none" stroke="var(--_line)" stroke-width="0.75" marker-end="url(#arrowhead)" />
<polyline points="1848.375,288 1848.375,308 1795.35,308 1795.35,426 1793.7749999999999,426" fill="none" stroke="var(--_line)" stroke-width="0.75" marker-end="url(#arrowhead)" />
<polyline points="1848.375,288 1848.375,308 1965.75,308 1965.75,426 2009.9250000000002,426" fill="none" stroke="var(--_line)" stroke-width="0.75" marker-end="url(#arrowhead)" />
<polyline points="1848.375,288 1848.375,308 2262.4625,308 2262.4625,408" fill="none" stroke="var(--_line)" stroke-width="0.75" marker-end="url(#arrowhead)" />
<rect x="62" y="96" width="60" height="36" rx="0" ry="0" fill="var(--_node-fill)" stroke="var(--_node-stroke)" stroke-width="0.75" />
<rect x="146" y="96" width="103.5" height="36" rx="0" ry="0" fill="var(--_node-fill)" stroke="var(--_node-stroke)" stroke-width="0.75" />
<rect x="273.5000000000003" y="96" width="110.65" height="36" rx="0" ry="0" fill="var(--_node-fill)" stroke="var(--_node-stroke)" stroke-width="0.75" />
<rect x="408.15" y="96" width="89.2" height="36" rx="0" ry="0" fill="var(--_node-fill)" stroke="var(--_node-stroke)" stroke-width="0.75" />
<rect x="521.3500000000001" y="96" width="110.65" height="36" rx="0" ry="0" fill="var(--_node-fill)" stroke="var(--_node-stroke)" stroke-width="0.75" />
<rect x="656" y="96" width="103.5" height="36" rx="0" ry="0" fill="var(--_node-fill)" stroke="var(--_node-stroke)" stroke-width="0.75" />
<rect x="783.5000000000001" y="96" width="153.55" height="36" rx="0" ry="0" fill="#e8f5e9" stroke="#4caf50" stroke-width="0.75" />
<rect x="2488.1000000000004" y="96" width="217.9" height="36" rx="0" ry="0" fill="#e8f5e9" stroke="#4caf50" stroke-width="0.75" />
<rect x="2004.2999999999997" y="96" width="225.05" height="36" rx="0" ry="0" fill="#e8f5e9" stroke="#4caf50" stroke-width="0.75" />
<rect x="1757.3" y="96" width="182.15" height="36" rx="0" ry="0" fill="#e8f5e9" stroke="#4caf50" stroke-width="0.75" />
<rect x="2253.3500000000004" y="96" width="210.75000000000003" height="36" rx="0" ry="0" fill="#e8f5e9" stroke="#4caf50" stroke-width="0.75" />
<rect x="433.47499999999974" y="252" width="110.65" height="36" rx="0" ry="0" fill="var(--_node-fill)" stroke="var(--_node-stroke)" stroke-width="0.75" />
<rect x="568.1249999999999" y="252" width="124.95" height="36" rx="0" ry="0" fill="var(--_node-fill)" stroke="var(--_node-stroke)" stroke-width="0.75" />
<rect x="717.0750000000003" y="252" width="139.25" height="36" rx="0" ry="0" fill="var(--_node-fill)" stroke="var(--_node-stroke)" stroke-width="0.75" />
<rect x="880.3249999999997" y="252" width="124.95" height="36" rx="0" ry="0" fill="var(--_node-fill)" stroke="var(--_node-stroke)" stroke-width="0.75" />
<rect x="1029.275" y="252" width="139.25" height="36" rx="0" ry="0" fill="var(--_node-fill)" stroke="var(--_node-stroke)" stroke-width="0.75" />
<rect x="1192.5249999999996" y="252" width="160.70000000000002" height="36" rx="0" ry="0" fill="var(--_node-fill)" stroke="var(--_node-stroke)" stroke-width="0.75" />
<rect x="1377.2249999999995" y="252" width="189.3" height="36" rx="0" ry="0" fill="#e8f5e9" stroke="#4caf50" stroke-width="0.75" />
<rect x="1630.5249999999999" y="408" width="139.25" height="36" rx="0" ry="0" fill="var(--_node-fill)" stroke="var(--_node-stroke)" stroke-width="0.75" />
<rect x="1793.7749999999999" y="408" width="153.55" height="36" rx="0" ry="0" fill="var(--_node-fill)" stroke="var(--_node-stroke)" stroke-width="0.75" />
<rect x="2009.9250000000002" y="408" width="139.25" height="36" rx="0" ry="0" fill="var(--_node-fill)" stroke="var(--_node-stroke)" stroke-width="0.75" />
<rect x="2185.6875" y="408" width="153.55" height="36" rx="0" ry="0" fill="var(--_node-fill)" stroke="var(--_node-stroke)" stroke-width="0.75" />
<rect x="2363.2375" y="408" width="182.15" height="36" rx="0" ry="0" fill="var(--_node-fill)" stroke="var(--_node-stroke)" stroke-width="0.75" />
<rect x="2569.3875" y="408" width="203.60000000000002" height="36" rx="0" ry="0" fill="var(--_node-fill)" stroke="var(--_node-stroke)" stroke-width="0.75" />
<rect x="2477.375" y="252" width="239.35000000000002" height="36" rx="0" ry="0" fill="#e8f5e9" stroke="#4caf50" stroke-width="0.75" />
<rect x="2011.4499999999998" y="252" width="210.75000000000003" height="36" rx="0" ry="0" fill="#e8f5e9" stroke="#4caf50" stroke-width="0.75" />
<rect x="1753.725" y="252" width="189.3" height="36" rx="0" ry="0" fill="#e8f5e9" stroke="#4caf50" stroke-width="0.75" />
<rect x="2267.6500000000005" y="252" width="182.15" height="36" rx="0" ry="0" fill="#e8f5e9" stroke="#4caf50" stroke-width="0.75" />
<rect x="2858.4375" y="408" width="153.55" height="36" rx="0" ry="0" fill="var(--_node-fill)" stroke="var(--_node-stroke)" stroke-width="0.75" />
<rect x="2836.9875" y="564" width="196.45000000000002" height="36" rx="0" ry="0" fill="var(--_node-fill)" stroke="var(--_node-stroke)" stroke-width="0.75" />
<rect x="3057.4375" y="564" width="210.75000000000003" height="36" rx="0" ry="0" fill="var(--_node-fill)" stroke="var(--_node-stroke)" stroke-width="0.75" />
<rect x="3050.2875" y="408" width="203.60000000000002" height="36" rx="0" ry="0" fill="#e8f5e9" stroke="#4caf50" stroke-width="0.75" />
<rect x="3332.1875" y="408" width="225.05" height="36" rx="0" ry="0" fill="#e8f5e9" stroke="#4caf50" stroke-width="0.75" />
<rect x="3581.2375" y="408" width="167.85000000000002" height="36" rx="0" ry="0" fill="#e8f5e9" stroke="#4caf50" stroke-width="0.75" />
<rect x="3773.0875" y="408" width="167.85000000000002" height="36" rx="0" ry="0" fill="#e8f5e9" stroke="#4caf50" stroke-width="0.75" />
<text x="92" y="114" text-anchor="middle" dy="0.35em" font-size="13" font-weight="500" fill="var(--_text)">&quot;/&quot;</text>
<text x="197.75" y="114" text-anchor="middle" dy="0.35em" font-size="13" font-weight="500" fill="var(--_text)">&quot;/classes&quot;</text>
<text x="328.8250000000003" y="114" text-anchor="middle" dy="0.35em" font-size="13" font-weight="500" fill="var(--_text)">&quot;/students&quot;</text>
<text x="452.75" y="114" text-anchor="middle" dy="0.35em" font-size="13" font-weight="500" fill="var(--_text)">&quot;/marks&quot;</text>
<text x="576.6750000000002" y="114" text-anchor="middle" dy="0.35em" font-size="13" font-weight="500" fill="var(--_text)">&quot;/generate&quot;</text>
<text x="707.75" y="114" text-anchor="middle" dy="0.35em" font-size="13" font-weight="500" fill="var(--_text)">&quot;/content&quot;</text>
<text x="860.2750000000001" y="114" text-anchor="middle" dy="0.35em" font-size="13" font-weight="500" fill="var(--_text)">&quot;/settings - NEW&quot;</text>
<text x="2597.05" y="114" text-anchor="middle" dy="0.35em" font-size="13" font-weight="500" fill="var(--_text)">&quot;Document Formatter - NEW&quot;</text>
<text x="2116.825" y="114" text-anchor="middle" dy="0.35em" font-size="13" font-weight="500" fill="var(--_text)">&quot;Analytics Dashboard - NEW&quot;</text>
<text x="1848.375" y="114" text-anchor="middle" dy="0.35em" font-size="13" font-weight="500" fill="var(--_text)">&quot;Export/Import - NEW&quot;</text>
<text x="2358.7250000000004" y="114" text-anchor="middle" dy="0.35em" font-size="13" font-weight="500" fill="var(--_text)">&quot;Google Drive Sync - NEW&quot;</text>
<text x="488.7999999999997" y="270" text-anchor="middle" dy="0.35em" font-size="13" font-weight="500" fill="var(--_text)">&quot;app-store&quot;</text>
<text x="630.5999999999999" y="270" text-anchor="middle" dy="0.35em" font-size="13" font-weight="500" fill="var(--_text)">&quot;class-store&quot;</text>
<text x="786.7000000000003" y="270" text-anchor="middle" dy="0.35em" font-size="13" font-weight="500" fill="var(--_text)">&quot;student-store&quot;</text>
<text x="942.7999999999997" y="270" text-anchor="middle" dy="0.35em" font-size="13" font-weight="500" fill="var(--_text)">&quot;marks-store&quot;</text>
<text x="1098.9" y="270" text-anchor="middle" dy="0.35em" font-size="13" font-weight="500" fill="var(--_text)">&quot;content-store&quot;</text>
<text x="1272.8749999999995" y="270" text-anchor="middle" dy="0.35em" font-size="13" font-weight="500" fill="var(--_text)">&quot;generation-store&quot;</text>
<text x="1471.8749999999995" y="270" text-anchor="middle" dy="0.35em" font-size="13" font-weight="500" fill="var(--_text)">&quot;settings-store - NEW&quot;</text>
<text x="1700.1499999999999" y="426" text-anchor="middle" dy="0.35em" font-size="13" font-weight="500" fill="var(--_text)">&quot;class-service&quot;</text>
<text x="1870.55" y="426" text-anchor="middle" dy="0.35em" font-size="13" font-weight="500" fill="var(--_text)">&quot;student-service&quot;</text>
<text x="2079.55" y="426" text-anchor="middle" dy="0.35em" font-size="13" font-weight="500" fill="var(--_text)">&quot;marks-service&quot;</text>
<text x="2262.4625" y="426" text-anchor="middle" dy="0.35em" font-size="13" font-weight="500" fill="var(--_text)">&quot;chapter-service&quot;</text>
<text x="2454.3125" y="426" text-anchor="middle" dy="0.35em" font-size="13" font-weight="500" fill="var(--_text)">&quot;lesson-plan-service&quot;</text>
<text x="2671.1875" y="426" text-anchor="middle" dy="0.35em" font-size="13" font-weight="500" fill="var(--_text)">&quot;question-paper-service&quot;</text>
<text x="2597.05" y="270" text-anchor="middle" dy="0.35em" font-size="13" font-weight="500" fill="var(--_text)">&quot;doc-formatter-service - NEW&quot;</text>
<text x="2116.825" y="270" text-anchor="middle" dy="0.35em" font-size="13" font-weight="500" fill="var(--_text)">&quot;analytics-service - NEW&quot;</text>
<text x="1848.375" y="270" text-anchor="middle" dy="0.35em" font-size="13" font-weight="500" fill="var(--_text)">&quot;export-service - NEW&quot;</text>
<text x="2358.7250000000004" y="270" text-anchor="middle" dy="0.35em" font-size="13" font-weight="500" fill="var(--_text)">&quot;drive-service - NEW&quot;</text>
<text x="2935.2125" y="426" text-anchor="middle" dy="0.35em" font-size="13" font-weight="500" fill="var(--_text)">&quot;sql.js (SQLite)&quot;</text>
<text x="2935.2125" y="582" text-anchor="middle" dy="0.35em" font-size="13" font-weight="500" fill="var(--_text)">&quot;IndexedDB Persistence&quot;</text>
<text x="3162.8125" y="582" text-anchor="middle" dy="0.35em" font-size="13" font-weight="500" fill="var(--_text)">&quot;LocalStorage (Settings)&quot;</text>
<text x="3152.0875" y="426" text-anchor="middle" dy="0.35em" font-size="13" font-weight="500" fill="var(--_text)">&quot;Google Drive API - NEW&quot;</text>
<text x="3444.7125" y="426" text-anchor="middle" dy="0.35em" font-size="13" font-weight="500" fill="var(--_text)">&quot;mammoth.js (Word parsing)&quot;</text>
<text x="3665.1625000000004" y="426" text-anchor="middle" dy="0.35em" font-size="13" font-weight="500" fill="var(--_text)">&quot;recharts (Charts)&quot;</text>
<text x="3857.0125000000003" y="426" text-anchor="middle" dy="0.35em" font-size="13" font-weight="500" fill="var(--_text)">&quot;Google API Client&quot;</text>
</svg>