<svg xmlns="http://www.w3.org/2000/svg" viewBox="0 0 1956.9 1681" width="1956.9" height="1681" style="--bg:#0d1117;--fg:#e6edf3;--line:#3d444d;--accent:#4493f8;--muted:#9198a1;background:var(--bg)">
<style>
  @import url('https://fonts.googleapis.com/css2?family=Inter:wght@400;500;600;700&amp;display=swap');
  text { font-family: 'Inter', system-ui, sans-serif; }
  svg {
    /* Derived from --bg and --fg (overridable via --line, --accent, etc.) */
    --_text:          var(--fg);
    --_text-sec:      var(--muted, color-mix(in srgb, var(--fg) 60%, var(--bg)));
    --_text-muted:    var(--muted, color-mix(in srgb, var(--fg) 40%, var(--bg)));
    --_text-faint:    color-mix(in srgb, var(--fg) 25%, var(--bg));
    --_line:          var(--line, color-mix(in srgb, var(--fg) 30%, var(--bg)));
    --_arrow:         var(--accent, color-mix(in srgb, var(--fg) 50%, var(--bg)));
    --_node-fill:     var(--surface, color-mix(in srgb, var(--fg) 3%, var(--bg)));
    --_node-stroke:   var(--border, color-mix(in srgb, var(--fg) 20%, var(--bg)));
    --_group-fill:    var(--bg);
    --_group-hdr:     color-mix(in srgb, var(--fg) 5%, var(--bg));
    --_inner-stroke:  color-mix(in srgb, var(--fg) 12%, var(--bg));
    --_key-badge:     color-mix(in srgb, var(--fg) 10%, var(--bg));
  }
</style>
<defs>
  <marker id="arrowhead" markerWidth="8" markerHeight="4.8" refX="8" refY="2.4" orient="auto">
    <polygon points="0 0, 8 2.4, 0 4.8" fill="var(--_arrow)" />
  </marker>
  <marker id="arrowhead-start" markerWidth="8" markerHeight="4.8" refX="0" refY="2.4" orient="auto-start-reverse">
    <polygon points="8 0, 0 2.4, 8 4.8" fill="var(--_arrow)" />
  </marker>
</defs>
<rect x="40" y="40" width="1537.8000000000002" height="1601" rx="0" ry="0" fill="var(--_group-fill)" stroke="var(--_node-stroke)" stroke-width="1" />
<rect x="40" y="40" width="1537.8000000000002" height="28" rx="0" ry="0" fill="var(--_group-hdr)" stroke="var(--_node-stroke)" stroke-width="1" />
<text x="52" y="54" dy="0.35em" font-size="12" font-weight="600" fill="var(--_text-sec)">&quot;Browser (PWA)&quot;</text>
<rect x="60" y="312" width="540.75" height="348" rx="0" ry="0" fill="var(--_group-fill)" stroke="var(--_node-stroke)" stroke-width="1" />
<rect x="60" y="312" width="540.75" height="28" rx="0" ry="0" fill="var(--_group-hdr)" stroke="var(--_node-stroke)" stroke-width="1" />
<text x="72" y="326" dy="0.35em" font-size="12" font-weight="600" fill="var(--_text-sec)">&quot;UI Layer&quot;</text>
<rect x="620.75" y="548" width="547.9000000000001" height="112" rx="0" ry="0" fill="var(--_group-fill)" stroke="var(--_node-stroke)" stroke-width="1" />
<rect x="620.75" y="548" width="547.9000000000001" height="28" rx="0" ry="0" fill="var(--_group-hdr)" stroke="var(--_node-stroke)" stroke-width="1" />
<text x="632.75" y="562" dy="0.35em" font-size="12" font-weight="600" fill="var(--_text-sec)">&quot;State Layer&quot;</text>
<rect x="592.1500000000001" y="784" width="605.0999999999999" height="601" rx="0" ry="0" fill="var(--_group-fill)" stroke="var(--_node-stroke)" stroke-width="1" />
<rect x="592.1500000000001" y="784" width="605.0999999999999" height="28" rx="0" ry="0" fill="var(--_group-hdr)" stroke="var(--_node-stroke)" stroke-width="1" />
<text x="604.1500000000001" y="798" dy="0.35em" font-size="12" font-weight="600" fill="var(--_text-sec)">&quot;Data Layer&quot;</text>
<rect x="1217.25" y="76" width="340.5500000000002" height="1545" rx="0" ry="0" fill="var(--_group-fill)" stroke="var(--_node-stroke)" stroke-width="1" />
<rect x="1217.25" y="76" width="340.5500000000002" height="28" rx="0" ry="0" fill="var(--_group-hdr)" stroke="var(--_node-stroke)" stroke-width="1" />
<text x="1229.25" y="90" dy="0.35em" font-size="12" font-weight="600" fill="var(--_text-sec)">&quot;Persistence&quot;</text>
<rect x="1597.8000000000002" y="1017" width="319.0999999999999" height="152" rx="0" ry="0" fill="var(--_group-fill)" stroke="var(--_node-stroke)" stroke-width="1" />
<rect x="1597.8000000000002" y="1017" width="319.0999999999999" height="28" rx="0" ry="0" fill="var(--_group-hdr)" stroke="var(--_node-stroke)" stroke-width="1" />
<text x="1609.8000000000002" y="1031" dy="0.35em" font-size="12" font-weight="600" fill="var(--_text-sec)">&quot;External (Online Only)&quot;</text>
<polyline points="330.375,404 330.375,424 314.2875,424 314.2875,604" fill="none" stroke="var(--_line)" stroke-width="0.75" marker-end="url(#arrowhead)" />
<polyline points="330.375,404 330.375,424 455.5625,424 455.5625,622 642.75,622" fill="none" stroke="var(--_line)" stroke-width="0.75" marker-end="url(#arrowhead)" />
<polyline points="894.7,640 894.7,840" fill="none" stroke="var(--_line)" stroke-width="0.75" marker-end="url(#arrowhead)" />
<polyline points="894.7,876 894.7,896 824.9875000000001,896 824.9875000000001,1093" fill="none" stroke="var(--_line)" stroke-width="0.75" marker-end="url(#arrowhead)" />
<polyline points="824.9875000000001,1129 824.9875000000001,1329" fill="none" stroke="var(--_line)" stroke-width="0.75" marker-end="url(#arrowhead)" />
<polyline points="824.9875000000001,1365 824.9875000000001,1405 1387.525,1405 1387.525,1565" fill="none" stroke="var(--_line)" stroke-width="0.75" marker-end="url(#arrowhead)" />
<polyline points="894.7,876 894.7,896 1022.535,896 1022.535,1111 1619.8000000000002,1111" fill="none" stroke="var(--_line)" stroke-width="0.75" stroke-dasharray="4 4" marker-end="url(#arrowhead)" />
<polyline points="1387.525,168 1387.525,386 578.75,386" fill="none" stroke="var(--_line)" stroke-width="0.75" marker-end="url(#arrowhead)" />
<rect x="991.655" y="971" width="61.760000000000005" height="27" rx="4" ry="4" fill="var(--bg)" stroke="var(--_inner-stroke)" stroke-width="0.5" />
<text x="1022.535" y="984.5" text-anchor="middle" dy="0.35em" font-size="11" font-weight="400" fill="var(--_text-muted)">&quot;online&quot;</text>
<rect x="81.99999999999997" y="368" width="496.75000000000006" height="36" rx="0" ry="0" fill="#e1f5fe" stroke="#01579b" stroke-width="0.75" />
<rect x="98.0875" y="604" width="432.40000000000003" height="36" rx="0" ry="0" fill="#e1f5fe" stroke="#01579b" stroke-width="0.75" />
<rect x="642.75" y="604" width="503.90000000000003" height="36" rx="0" ry="0" fill="#f3e5f5" stroke="#4a148c" stroke-width="0.75" />
<rect x="614.1500000000001" y="840" width="561.1" height="36" rx="0" ry="0" fill="#e8f5e9" stroke="#1b5e20" stroke-width="0.75" />
<rect x="683.8625000000001" y="1093" width="282.25" height="36" rx="0" ry="0" fill="#e8f5e9" stroke="#1b5e20" stroke-width="0.75" />
<rect x="723.1875" y="1329" width="203.60000000000002" height="36" rx="0" ry="0" fill="#e8f5e9" stroke="#1b5e20" stroke-width="0.75" />
<rect x="1239.25" y="1565" width="296.55" height="36" rx="0" ry="0" fill="#fff3e0" stroke="#e65100" stroke-width="0.75" />
<rect x="1242.825" y="132" width="289.40000000000003" height="36" rx="0" ry="0" fill="#fff3e0" stroke="#e65100" stroke-width="0.75" />
<rect x="1619.8000000000002" y="1093" width="275.1" height="36" rx="0" ry="0" fill="#fce4ec" stroke="#880e4f" stroke-width="0.75" />
<text x="330.375" y="386" text-anchor="middle" dy="0.35em" font-size="13" font-weight="500" fill="var(--_text)">&quot;Next.js Pages&lt;br/&gt;Dashboard, Classes, Students, Marks, Feedback&quot;</text>
<text x="314.2875" y="622" text-anchor="middle" dy="0.35em" font-size="13" font-weight="500" fill="var(--_text)">&quot;shadcn/ui Components&lt;br/&gt;Forms, Tables, Cards, Dialogs&quot;</text>
<text x="894.7" y="622" text-anchor="middle" dy="0.35em" font-size="13" font-weight="500" fill="var(--_text)">&quot;Zustand Stores&lt;br/&gt;useClassStore, useStudentStore, useMarksStore&quot;</text>
<text x="894.7" y="858" text-anchor="middle" dy="0.35em" font-size="13" font-weight="500" fill="var(--_text)">&quot;Services&lt;br/&gt;classService, studentService, marksService, feedbackService&quot;</text>
<text x="824.9875000000001" y="1111" text-anchor="middle" dy="0.35em" font-size="13" font-weight="500" fill="var(--_text)">&quot;Drizzle ORM&lt;br/&gt;Type-safe queries&quot;</text>
<text x="824.9875" y="1347" text-anchor="middle" dy="0.35em" font-size="13" font-weight="500" fill="var(--_text)">&quot;sql.js&lt;br/&gt;SQLite WASM&quot;</text>
<text x="1387.525" y="1583" text-anchor="middle" dy="0.35em" font-size="13" font-weight="500" fill="var(--_text)">&quot;IndexedDB&lt;br/&gt;Database file storage&quot;</text>
<text x="1387.525" y="150" text-anchor="middle" dy="0.35em" font-size="13" font-weight="500" fill="var(--_text)">&quot;Service Worker&lt;br/&gt;Workbox caching&quot;</text>
<text x="1757.3500000000001" y="1111" text-anchor="middle" dy="0.35em" font-size="13" font-weight="500" fill="var(--_text)">&quot;Claude API&lt;br/&gt;Enhanced feedback&quot;</text>
</svg>